<svg xmlns="http://www.w3.org/2000/svg" viewBox="0 0 643.83 544.79"><defs><style>.cls-1{fill:#f5deb5;}.cls-1,.cls-2,.cls-3{opacity:0.5;}.cls-2{fill:#f9f6f0;}.cls-3{fill:#f5ebe0;}</style></defs><title>blob together</title><g id="Layer_2" data-name="Layer 2"><g id="Layer_2-2" data-name="Layer 2"><path class="cls-1" d="M64.23,78.62C90.53,13.91,182.55-11.74,242.12,5,304.78,22.54,371.6,45.92,427,80.52c59.4,37.14,50.36,64.12,42.7,126.29-6.8,55.14-11.24,132.29-58.82,169.26C368.42,409,280,400.39,228.33,403.61c-58.06,3.63-137.41,14.78-191.54-12.09C-49.81,348.53,40.5,148,64.23,78.62Z"/><path class="cls-2" d="M91.56,163.19C124.1,88.45,237.93,58.83,311.62,78.13c77.51,20.3,160.18,47.29,228.66,87.27,73.48,42.89,62.31,74,52.82,145.86-8.41,63.68-13.9,152.79-72.75,195.49-52.49,38.08-161.93,28.09-225.79,31.81-71.82,4.19-170,17.07-236.94-14C-49.52,475,62.21,243.35,91.56,163.19Z"/><path class="cls-3" d="M253,49.39C269,40.65,414.94-36.29,535,38c113.13,70,138.76,234.39,73.57,310.37-27.66,32.25-75.25,42.47-170.41,62.9-99.31,21.32-164,35.2-231.72,4.38-12.13-5.51-79.88-36.32-103-101.48C68.32,215,159.52,100.48,253,49.39Z"/></g></g></svg>