<?xml version="1.0" encoding="utf-8"?>
<!-- Generator: Adobe Illustrator 21.0.0, SVG Export Plug-In . SVG Version: 6.00 Build 0)  -->
<svg version="1.1" id="Layer_1" xmlns="http://www.w3.org/2000/svg" xmlns:xlink="http://www.w3.org/1999/xlink" x="0px" y="0px"
	 viewBox="0 0 586 104" style="enable-background:new 0 0 586 104;" xml:space="preserve">
<g>
	<path d="M487.1,71.4c-2.2-0.8-4.8-0.8-7.1-0.7c-2.7,0.1-5.7,0.5-8.3,1.4c-2.1,0.7-3.9,2-4.7,4.1c-0.7,1.8-0.6,4.1,0.6,5.6
		c1.3,1.7,3.6,3,5.6,3.8c1.4,0.5,2.8,0.8,4.2,1.1c1.7,0.3,3.5,0.4,5.3,0.5c0.9,0,1.9,0.1,2.9,0.1c0.9,0,2,0.2,2.8-0.2
		c1-0.4,1.5-1.5,1.5-2.5c0-0.1,0-0.2,0-0.3c-0.1-0.1-0.2-0.2-0.3-0.2c-1-0.1-2.3,0.1-3.3,0.2c-1.2,0.1-2.3,0.1-3.5,0
		c-2-0.1-4-0.5-5.9-1.1c-1.2-0.4-2.4-0.8-3.4-1.5c-0.1-0.1-1.6-1.4-1-1.6c0.1,0,0.2-0.1,0.3-0.1c1.6-0.2,3.2-0.4,4.8-0.5
		c1.3-0.1,2.7-0.2,4-0.2c2.6-0.2,5.3-0.2,7.8-0.6c0.6-0.1,1.2-0.3,1.6-0.8c0.3-0.4,0.4-0.9,0.4-1.5
		C491.3,74.2,489.2,72.2,487.1,71.4z M488.3,75.7c-0.6,0.8-3.8,0.9-4.4,0.9c-2.8,0-5.4,0.2-8.2,0.5c-0.2,0-4.4,0.4-4.4-0.1
		c0-0.2,0.2-0.4,0.4-0.6c0.4-0.5,1-0.8,1.6-1.1c1.6-0.7,3.3-1.2,5-1.5c2-0.3,4.2-0.5,6.3-0.4C485.2,73.6,489.2,74.5,488.3,75.7z"/>
	<path d="M561.8,40.9c-2-2.4-5.8-3.6-8.8-4.5c-4.1-1.1-8.5-1.3-12.4-3c0.7-1.1,2.3-1.5,3.7-1.6c4.3-0.3,8.8,0.4,12.7,2.1
		c2.1,0.9,5.3,0.5,3.8-2.5c-0.5-1-1.5-1.7-2.6-2.2c-4.8-2.4-11-2.6-16.2-1.2c-3.6,0.9-10.6,4.2-5.9,8.4c1,0.9,2.4,1.5,3.7,1.9
		c5.8,1.7,12.6,1.2,17.4,5.2c-5,2.9-12.4,1.3-17.3-0.8c-0.8-0.4-1.7-0.8-2.6-0.5c-0.5,0.2-1,0.6-1,1.1c0,0.3,0.1,0.6,0.3,0.8
		c4.4,7.4,18.9,7.1,25,1.7c0.7-0.7,1.3-1.5,1.3-2.5C562.9,42.5,562.4,41.6,561.8,40.9z"/>
	<path d="M530.9,28.6c-0.5-1.1-2.1-1.7-3.2-0.9c-2.3,1.9-1.4,6.8-1.3,9.3c0.1,2,0.4,4.1-0.2,6c-0.8,2.6-2.9,3.2-5.6,2.9
		c-1.4-0.2-2.8-0.9-3.7-2c-0.7-1-0.9-2.2-1.1-3.4c-0.3-2.6-0.5-5.3-0.4-7.9c0-0.8,0.1-1.6-0.3-2.4c-0.3-0.7-1.2-1.3-2-1.2
		c-1,0.2-1.4,1.3-1.6,2.3c-0.7,3.2-1.3,6.5-0.8,9.7c0.4,2.6,1.9,5.2,4,6.9c3.2,2.1,5.8,1.5,9.5,0.9c0.4-0.1,0.8,0,1,0.2
		c1.1,0.9,0.3,3.9,0.3,4.9c-0.1,1.6-0.3,3.2-0.6,4.8c-0.6,3.1-1.6,6.1-2.9,9c-0.7,1.6-1.7,3.5-1.7,5.3c0,1.7,1.3,2,2.8,1.5
		c1.7-0.6,2.5-2,3.2-3.5c2.7-6.4,3.8-13,4.5-19.8c0.6-7,0.8-14,0.3-21C531.1,29.6,531.1,29.1,530.9,28.6z"/>
	<path d="M389.7,46.7c1.3-1.5,1-4.8,0.9-6.6c-0.1-2.3-0.5-4.7-2.1-6.5c-2.1-2.3-5.4-2.9-8.4-2.9c-2.9,0.1-5.8,0.2-8.6,0.6
		c-2,0.3-6.1,0.6-6.9,2.8c-0.1,0.4-0.1,0.9,0.3,1.2c0.2,0.2,0.5,0.2,0.7,0.3c2,0.3,4.4-0.4,6.4-0.5c2.4-0.2,4.7-0.3,7.1-0.3
		c1.1,0,2.2,0,3.2,0.4c1.7,0.6,2.9,2.3,2.7,4l0,0c-2.3-1.3-6.4-1.3-9-1.2c-3.9,0.1-7.7,1.2-10.6,3.8c-0.8,0.7-1.4,1.4-1.9,2.2
		c-1.2,2.2-0.7,5.2,2.3,6.4c0.4,0.2,0.8,0.3,1.3,0.4c4.6,1.1,10,0.4,14.5-0.7C383.9,49.4,388,48.6,389.7,46.7z M369.4,46.6
		c-0.4,0-0.9-0.1-1.3-0.3c-3-1.7,5.6-4.3,6.9-4.4c3.1-0.2,6.4,0.3,9.5,0.5c0.2,0,0.4,0,0.6,0.2l0,0c0.2,0.1,0.2,0.4,0.2,0.6
		c0.1,0.8,0.1,1.6,0,2.3c0,0.3-7,0.9-7.6,1C374.8,46.7,372.1,46.9,369.4,46.6z"/>
	<path d="M470.9,49.6c1.3-1.1,1.4-2.8,1.9-4.3c0.9-2.6,1.9-5.1,2.9-7.6c0.8-1.8,2-3.5,2.6-5.4c0.8-2.4-1.1-4.3-3.6-2.3
		c-0.5,0.4-0.8,1-1.1,1.5c-1,2.1-1.9,4.3-2.9,6.5c-0.7,1.6-1.6,4.6-3.1,5.7c-1.7-2.7-2.7-5.9-4-8.8c-0.7-1.6-2.2-6.3-4.9-4.4
		c-0.6,0.4-1,1.1-1.3,1.7c-1.7,3.1-3.1,6.4-4.5,9.7c-1,2.2-1.7,0.4-2-0.8c-0.8-2.8-1.6-5.6-2.4-8.3c-0.3-1.1-0.8-1.8-2.1-1.6
		c-0.7,0.1-1.4,0.2-2,0.6c-0.9,0.6-0.9,1.6-0.6,2.5c0.9,3.5,1.9,6.9,3,10.3c0.7,2.1,1.2,6.7,4.5,6.2c2.8-0.5,4.1-3.8,4.8-6.1
		c0.7-2.3,1.3-4.7,3-6.5c0.2-0.2,0.4-0.4,0.6-0.4c2.1-0.5,5.4,9.7,6.2,11.2C466.8,50.6,469.3,51.1,470.9,49.6z"/>
	<path d="M442,50.6c1.2-0.9,1.1-4.2,1.1-5.4c0.1-2.1-0.2-4.2-0.8-6.2c-0.4-1.4-0.9-2.8-1.6-4c-1.2-2-3.3-3.3-5.7-3.5
		c-4.6-0.5-9.2,0.1-13.7,0.5c0-0.2,0-0.3,0-0.4c0-2.7,0-5.4,0-8c0-0.4,0-0.8,0-1.2c-0.1-1.6,0.8-8.1-2.2-7.6
		c-0.8,0.1-1.5,0.8-1.8,1.5s-0.3,1.6-0.4,2.3c-0.2,5-0.4,10-0.6,15.1c-0.2,4.5-1.1,9.6-0.3,14.1c0.1,0.9,0.7,2,1.6,2.4
		c0.7,0.3,1.6-0.1,2-0.7c0.8-0.9,1.1-2.5,1.1-3.6c0.1-1.9,0.2-3.7,0.2-5.6c0-0.9-0.3-3.3,0.4-4.2c0.1-0.1,0.2-0.2,0.4-0.3
		c0.4-0.2,0.9-0.2,1.4-0.2c3.3,0,10.4-1.2,12.9,1.5c0.7,0.7,1,1.6,1.3,2.6c1.1,3.3,1.3,6.8,1.7,10.2c0,0.3,0.1,0.5,0.2,0.7
		c0.3,0.3,0.7,0.3,1.1,0.3C441,51,441.6,50.9,442,50.6z"/>
	<path d="M394.8,35.1c0.5,0.5,0.2,1.8,0.3,2.5c0.1,4.5-1.2,11.4,5.1,12.5c3.9,0.7,11.5,0.2,14-3.2c0.1-0.2,0.3-0.4,0.2-0.6
		c0-0.3-0.3-0.5-0.6-0.6c-1.8-0.3-4,0-5.8-0.1c-2,0-4-0.1-6.1-0.1c-1.1,0-2-0.1-2.1-1.3c-0.2-3-0.4-6.1-0.1-9.1c0-0.4,7,0,7.7,0
		c2.3-0.1,5.6-0.5,6.8-2.7c0.1-0.1,0.1-0.4,0.1-0.5c-0.3-0.8-0.7-1.8-1.6-2.1c-0.4-0.1-0.8-0.1-1.2-0.1c-2.1,0.2-4.3,0.3-6.4,0.4
		c-1.2,0-3.8,0.6-4.8-0.1c-0.8-0.5-0.1-4.3,0-5.2c0.2-2,0.4-4.1,0.6-6.1c0.1-1.4-0.5-2.8-2.3-2.3c-1.1,0.3-2.2,1.3-2.6,2.3
		c-0.3,0.9-0.4,1.8-0.4,2.7c-0.1,2.7-0.3,5.3-0.4,8c-0.1,1.3-0.6,1.6-1.8,1.9c-1.1,0.3-1.8,1.8-0.6,2.8
		C392.7,34.3,394.7,35.1,394.8,35.1z"/>
	<path d="M463.8,75.1c-1.9-2.3-4.9-3.4-7.8-3.5c-3.7-0.2-7.2,1.3-10.8,1.9c-0.4,0.1-0.7,0-0.9-0.1c-0.4-0.3-0.4-0.8-1.1-1
		c-4.7-1.3-2.4,11.9-1.6,13.8c0.3,0.7,0.9,1.5,1.6,1.3c0.4-0.1,0.6-0.5,0.8-0.8c0.9-1.9,0.3-6.2,0-8.3c-0.2-2.2,4.1-2.5,5.5-2.7
		c2.5-0.5,5.3-0.8,7.7,0.3c0.9,0.4,1.7,1.1,2.6,1.7c0.9,0.5,1.9,1,2.9,0.8s1.9-1.2,1.7-2.2C464.3,75.7,464.1,75.4,463.8,75.1z"/>
	<path d="M362.6,70.6c-4-4.2-11.8-4.9-16.8-2.2c-3.5,1.9-6,5.4-5.5,9.3c0.5,4.1,4.7,6.5,8.6,7.2c4.4,0.8,9.6,0,13-2.9
		c2.4-2.1,3.7-5.6,2.5-8.6C364,72.4,363.4,71.4,362.6,70.6z M361,77.1c-0.3,1.3-1.1,2.4-2.2,3.3c-1.1,0.8-2.4,1.3-3.7,1.6
		c-5.1,0.9-13.6-2.9-9.5-8.9c2.1-3,6.4-3.5,9.8-2.9c1.5,0.3,3,0.9,4.1,2C360.7,73.4,361.3,75.4,361,77.1z"/>
	<path d="M505.1,32.1c-2.1-2.3-5.4-2.9-8.4-2.9c-2.9,0.1-5.8,0.2-8.6,0.6c-2,0.3-6.1,0.6-6.9,2.8c-0.1,0.4-0.1,0.9,0.3,1.2
		c0.2,0.2,0.5,0.2,0.7,0.3c2,0.3,4.4-0.4,6.4-0.5c2.4-0.2,4.7-0.3,7.1-0.3c1.1,0,2.2,0,3.2,0.4c1.7,0.6,2.9,2.3,2.7,4l0,0
		c-2.3-1.3-6.4-1.3-9-1.2c-3.9,0.1-7.7,1.2-10.6,3.8c-0.8,0.7-1.4,1.4-1.9,2.2c-1.2,2.2-0.7,5.2,2.3,6.4c0.4,0.2,0.8,0.3,1.3,0.4
		c4.6,1.1,10,0.4,14.5-0.7c2.5-0.6,6.5-1.4,8.3-3.3c1.3-1.5,1-4.8,0.9-6.6C507.1,36.3,506.7,33.9,505.1,32.1z M501.8,44
		c0,0.3-7,0.9-7.6,1c-2.7,0.3-5.5,0.4-8.2,0.1c-0.4,0-0.9-0.1-1.3-0.3c-3-1.7,5.6-4.3,6.9-4.4c3.1-0.2,6.4,0.3,9.5,0.5
		c0.2,0,0.4,0,0.6,0.2l0,0c0.2,0.1,0.2,0.4,0.2,0.6C501.9,42.4,501.9,43.2,501.8,44z"/>
	<path d="M338,81.3c-1.4-0.3-3.3,0-4.7-0.1c-1.7,0-3.3,0-5-0.1c-0.9,0-1.6-0.1-1.7-1.1c-0.2-2.5-0.3-5-0.1-7.5c0-0.3,5.8,0,6.3,0
		c1.9,0,4.7-0.4,5.6-2.2c0.1-0.1,0.1-0.3,0.1-0.4c-0.2-0.6-0.6-1.5-1.3-1.7c-0.3-0.1-0.7-0.1-1-0.1c-1.8,0.2-3.5,0.2-5.3,0.3
		c-1,0-3.2,0.5-4-0.1c-0.7-0.4-0.1-3.6,0-4.3c0.1-1.7,0.3-3.4,0.5-5c0.1-1.2-0.5-2.3-1.9-1.9c-0.9,0.2-1.8,1-2.1,1.9
		c-0.3,0.7-0.3,1.5-0.4,2.2c-0.1,2.2-0.2,4.4-0.4,6.6c-0.1,1.1-0.5,1.3-1.5,1.6c-0.9,0.3-1.5,1.5-0.5,2.3l1.8,0.7
		c0.4,0.4,0.2,1.5,0.2,2c0.1,3.7-1,9.4,4.2,10.3c3.2,0.6,9.5,0.2,11.6-2.6c0.1-0.2,0.2-0.3,0.2-0.5C338.5,81.5,338.2,81.4,338,81.3z
		"/>
	<path d="M436.4,73.6c-1.6-1.8-4.3-2.3-6.7-2.3c-2.3,0.1-4.6,0.1-6.8,0.5c-1.6,0.2-4.8,0.5-5.4,2.2c-0.1,0.3-0.1,0.7,0.2,0.9
		c0.2,0.1,0.4,0.2,0.6,0.2c1.6,0.2,3.4-0.3,5.1-0.4c1.9-0.2,3.7-0.3,5.6-0.3c0.9,0,1.7,0,2.6,0.3c1.3,0.4,2.3,1.8,2.1,3.1l0,0
		c-1.8-1-5.1-1-7.1-1c-3.1,0.1-6.1,1-8.4,3c-0.6,0.5-1.1,1.1-1.5,1.8c-1,1.7-0.6,4.1,1.8,5.1c0.3,0.1,0.7,0.3,1,0.3
		c3.6,0.9,7.9,0.3,11.5-0.6c2-0.5,5.2-1.1,6.5-2.6c1.1-1.2,0.8-3.8,0.7-5.2C438,77,437.7,75,436.4,73.6z M433.8,83
		c0,0.2-5.6,0.7-6.1,0.8c-2.1,0.2-4.3,0.3-6.5,0.1c-0.3,0-0.7-0.1-1-0.3c-2.4-1.4,4.4-3.4,5.4-3.5c2.5-0.2,5.1,0.2,7.5,0.4
		c0.2,0,0.3,0,0.4,0.1l0,0c0.1,0.1,0.2,0.3,0.2,0.5C433.9,81.8,433.9,82.4,433.8,83z"/>
	<path d="M283.6,69.6c-9.4-0.6-18.8-1.8-28.2-3.6c-6-1.2-12.1-2.6-17.2-6.6c-1.3-1-2.6-2.2-3.1-4c-1-3.6,1.5-7.1,4-9.2
		c12.6-10.7,29.1-10.8,44.2-9.1c3.3,0.4,7.7,0,8.6-4.1c0.4-1.9-0.2-4-1.1-5.6c-3-5.1-8.5-6.4-13.5-6.9c-10.4-1-20.9-0.1-31.1,2.8
		c-5.7,1.6-11.3,3.9-16.1,8.1c-10.9,9.6-12.3,26.1-1.8,37c4.5,4.7,10.1,7.5,15.8,9.5c13.6,5,28.6,4.8,42.6,6.3
		c2.5,0.3,5.2,0.4,7-1.7c0.1-0.2,0.3-0.3,0.4-0.5c2-2.9,0.9-7.3-1.4-9.5C290.2,70,286.8,69.8,283.6,69.6z"/>
	<path d="M203.7,24c-9.1-1-26.2-0.8-28.8-0.7c-13.3,0.5-26.7,1.3-40,1.8c-4.7,0.2-10.3,0.8-11.4,5.5c-0.5,2.2,0.9,4.1,3.4,4.7
		c1,0.2,2.1,0.3,3.1,0.3c5.1,0.4,10.2,0.8,15.2,1.1c4.4,0.2,8.8,0.2,13.2,0.2c4.6,0,2.3,36.7,3.2,40.6c0.8,3.7,7.1,10.6,12.4,4.4
		c2.4-2.8,1.1-4.6,1.3-7.9c0.1-1.9-3.9-37.5-2.2-37.6c5.7-0.3,16.5-0.9,22.2-1.2c4-0.2,8.4-0.8,11.6-3.1
		C212,28.3,209.5,24.6,203.7,24z"/>
	<path d="M105.2,28.7c-4.4-3.6-9.9-5.4-15.4-6.6c-16.5-3.5-33.5-1.8-50.3-0.1c-2.3,0.2-4.6,0.5-6.7,1.5c-4.2,2.1-5,6.8-5.1,11
		c-0.1,5.1-0.1,10.3-0.1,15.4c0,6.1,0.1,12.2,0.3,18.2c0.1,5-0.9,11.3,3.6,14.8c2.1,1.6,4.3,1.4,6.8,1.2c3.6-0.4,5.6-2.8,6.2-6.3
		c0-0.3,0.1-0.6,0.1-0.9c0.2-1.2,0.4-2.4,0.6-3.7c0.1,0,0.1,0,0.2-0.1c0-1,0-2.1,0.6-2.9c1.8-2.5,8-2,10.7-2.4
		c4.5-0.6,9-1.1,13.5-1.7c11.1-1.4,22-3.3,31.5-9.5c4.8-3.1,9.2-7.6,10.1-13.2C112.5,37.9,109.5,32.3,105.2,28.7z M100.7,44.9
		c-0.7,1.5-1.9,2.6-3.1,3.6c-8.6,6.7-19.5,8.2-29.9,10c-5.4,0.9-20.9,3-24.1-3.3c-0.8-1.6-0.8-3.5-0.8-5.3c0.3-9,1.1-14.8,10.5-17.5
		c8-2.3,17.1-2,25.3-1.1C84.5,32.1,105.8,33.5,100.7,44.9z"/>
	<path d="M413.8,84.1c-1.3-1-3-1.1-4.5-1.2c-4.6-0.3-9.3-0.8-13.8-1.5c-2.9-0.5-5.9-1.1-8.5-2.8c-0.6-0.4-1.3-0.9-1.5-1.7
		c-0.5-1.5,0.8-3,2-3.9c6.2-4.6,14.3-4.6,21.7-3.9c1.6,0.2,3.8,0,4.2-1.7c0.2-0.8-0.1-1.7-0.6-2.4c-1.5-2.2-4.2-2.7-6.6-2.9
		c-5.1-0.4-10.3,0-15.3,1.2c-2.8,0.7-5.6,1.6-7.9,3.4c-5.3,4.1-6,11.1-0.9,15.8c2.2,2,5,3.2,7.8,4c6.7,2.1,14.1,2,20.9,2.7
		c1.2,0.1,2.6,0.2,3.5-0.7c0.1-0.1,0.1-0.1,0.2-0.2C415.4,86.9,414.9,85,413.8,84.1z"/>
	<path d="M321.3,47.7c1,0.7,2.1,0.7,3.4,0.5c1.8-0.2,2.8-1.3,3.1-2.9c0-0.1,0-0.3,0-0.4c0.1-0.6,0.2-1.1,0.3-1.7h0.1
		c0-0.5,0-1,0.3-1.4c0.9-1.2,4-0.9,5.4-1.1c2.3-0.3,4.5-0.5,6.8-0.8c5.6-0.6,11.1-1.5,15.9-4.4c2.4-1.4,4.7-3.5,5.1-6.1
		s-1.1-5.2-3.3-6.9c-2.2-1.7-5-2.5-7.8-3c-8.3-1.6-16.9-0.8-25.3,0c-1.1,0.1-2.3,0.2-3.4,0.7c-2.1,1-2.5,3.1-2.6,5.1
		c0,2.4-0.1,4.8-0.1,7.2c0,2.8,0.1,5.6,0.1,8.5C319.5,43.2,319,46.1,321.3,47.7z M327,32.4c0.2-4.2,0.6-6.9,5.3-8.1
		c4-1.1,8.6-0.9,12.7-0.5c3,0.3,13.7,1,11.1,6.3c-0.3,0.7-0.9,1.2-1.6,1.7c-4.3,3.1-9.8,3.8-15.1,4.6c-2.7,0.4-10.5,1.4-12.1-1.5
		C327,34.1,327,33.2,327,32.4z"/>
</g>
</svg>
