<?xml version="1.0" encoding="utf-8"?>
<!-- Generator: Adobe Illustrator 16.0.0, SVG Export Plug-In . SVG Version: 6.00 Build 0)  -->
<!DOCTYPE svg PUBLIC "-//W3C//DTD SVG 1.1//EN" "http://www.w3.org/Graphics/SVG/1.1/DTD/svg11.dtd">
<svg version="1.1" id="Layer_1" xmlns="http://www.w3.org/2000/svg" xmlns:xlink="http://www.w3.org/1999/xlink" x="0px" y="0px"
	 width="873px" height="136px" viewBox="169.5 886.5 873 136" enable-background="new 169.5 886.5 873 136" xml:space="preserve">
<g>
	<path d="M474.916,914.925c0,1.085-0.465,2.325-1.085,3.41c-0.775,1.24-1.86,2.325-3.41,3.41l0,0l0,0
		c-5.27,3.72-12.09,4.649-18.444,4.96l0,0c-8.681,0.465-25.11,1.395-34.1,1.859c0,0.155-0.155,0.311-0.155,0.62
		c-0.155,0.775-0.155,1.86-0.155,3.255c0,5.735,0.775,15.965,1.705,26.04s1.86,19.84,2.17,24.645
		c0.155,1.396,0.155,2.325,0.155,2.79v0.155l0,0l0,0c0,0.31,0,0.774,0,1.085c0,2.015,0.31,3.564,0.31,5.27
		c0,2.016-0.465,4.03-2.479,6.355c-2.48,2.945-5.271,4.185-7.905,4.185c-3.255,0-6.2-1.859-8.37-4.029
		c-2.17-2.325-3.875-4.96-4.34-7.285l0,0l0,0l0,0l0,0c-0.155-0.775-0.31-2.015-0.31-3.565c0-1.705,0-3.72,0-6.199
		c0-4.806,0-10.851,0-17.205c0-10.54-0.155-21.854-1.396-28.83c-0.31-2.325-0.774-4.185-1.395-5.27
		c-0.311-0.62-0.62-1.085-0.931-1.24l-0.31-0.155c-6.82,0-13.64,0-20.46-0.31l0,0l0,0c-7.75-0.465-15.654-1.085-23.56-1.705
		c-1.55,0-3.255-0.155-4.96-0.465l0,0l0,0c-1.86-0.465-3.255-1.24-4.34-2.48c-1.085-1.085-1.705-2.635-1.705-4.185
		c0-0.465,0-1.085,0.155-1.55l0,0c0.465-2.016,1.395-3.565,2.635-4.805c1.24-1.24,2.79-2.016,4.495-2.636
		c3.41-1.239,7.439-1.55,11.159-1.704l0,0l0,0c20.615-0.775,41.385-2.016,62-2.79c1.55,0,5.89-0.155,11.78-0.155
		c10.074,0,24.024,0.155,33.014,1.24c2.945,0.31,5.271,1.085,7.131,2.324C473.676,911.359,474.916,913.064,474.916,914.925z
		 M1020.512,934.455L1020.512,934.455L1020.512,934.455L1020.512,934.455L1020.512,934.455c-1.705-2.016-4.03-3.41-6.51-4.495
		c-2.48-1.085-5.115-2.016-7.44-2.636l0,0l0,0c-6.045-1.704-12.399-2.015-18.135-4.185c0.31-0.31,0.775-0.62,1.396-0.775
		c0.93-0.31,2.015-0.465,3.1-0.62c0.93,0,2.015-0.154,2.945-0.154c5.58,0,11.314,1.085,16.43,3.255l0,0
		c1.085,0.465,2.324,0.774,3.41,0.774c0.93,0,2.015-0.154,2.789-0.619c0.775-0.466,1.396-1.396,1.396-2.48
		c0-0.775-0.155-1.55-0.62-2.479c-0.93-1.86-2.635-2.945-4.34-3.721l0,0l0,0l0,0c-4.495-2.324-9.765-3.255-15.035-3.255
		c-3.564,0-7.13,0.465-10.54,1.396l0,0l0,0l0,0c-2.17,0.62-5.114,1.705-7.595,3.255c-1.24,0.774-2.325,1.705-3.1,2.635
		c-0.775,1.085-1.396,2.17-1.396,3.565c0,1.704,0.931,3.255,2.636,4.96c1.704,1.55,3.875,2.479,6.045,3.1l0,0l0,0
		c4.649,1.395,9.454,1.86,14.104,2.635c4.185,0.775,8.215,2.016,11.625,4.495c-2.636,1.24-5.735,1.86-8.835,1.86
		c-5.58,0-11.625-1.705-16.12-3.565c-0.93-0.465-2.015-0.93-3.255-0.93c-0.465,0-0.775,0-1.24,0.155l0,0l0,0
		c-0.465,0.154-0.93,0.465-1.395,0.774c-0.311,0.311-0.775,0.931-0.775,1.55c0,0.62,0.155,1.24,0.62,1.705
		c1.86,3.255,4.96,5.425,8.525,6.976c3.564,1.55,7.749,2.17,11.779,2.17c7.44,0,14.88-2.17,19.685-6.355l0,0l0,0
		c0.62-0.62,1.086-1.239,1.551-1.859c0.465-0.775,0.774-1.551,0.774-2.48C1022.371,937.09,1021.441,935.54,1020.512,934.455z
		 M646.654,946.079L646.654,946.079L646.654,946.079L646.654,946.079z M602.325,922.83L602.325,922.83L602.325,922.83z
		 M603.41,983.279L603.41,983.279L603.41,983.279L603.41,983.279L603.41,983.279c-2.016-2.015-4.495-3.1-6.976-3.72
		c-2.479-0.62-5.114-0.775-7.595-0.931c-14.569-0.93-29.14-2.79-43.555-5.58c-9.3-1.859-18.6-4.029-26.35-10.074l0,0l0,0
		c-2.015-1.55-3.875-3.255-4.495-5.735c-0.154-0.774-0.31-1.55-0.31-2.325c0-2.17,0.774-4.185,1.859-6.199
		c1.24-1.86,2.79-3.565,4.341-4.96l0,0c13.794-11.78,30.845-15.19,48.049-15.19c6.665,0,13.33,0.465,19.995,1.24l0,0
		c0.93,0.155,2.015,0.155,3.1,0.155c2.325,0,4.806-0.311,6.82-1.396s3.72-2.945,4.34-5.734l0,0c0.155-0.62,0.155-1.396,0.155-2.171
		c0-2.479-0.93-5.114-2.015-7.13l0,0l0,0c-2.48-4.185-5.891-6.664-9.61-8.369s-7.905-2.325-11.78-2.79l0,0
		c-4.185-0.466-8.524-0.62-12.71-0.62c-11.935,0-24.024,1.705-35.805,4.96l0,0l0,0l0,0c-8.835,2.479-17.67,6.045-25.265,12.71l0,0
		c-9.3,8.215-14.104,19.375-14.104,30.845c0,9.765,3.72,19.685,11.314,27.59c7.13,7.439,15.965,11.779,24.8,14.88l0,0l0,0l0,0
		c21.235,7.75,44.64,7.439,66.185,9.765c1.24,0.155,2.325,0.31,3.565,0.31c1.395,0,2.79-0.154,4.185-0.62
		c1.396-0.465,2.635-1.239,3.72-2.479l0,0v-0.155l0.155-0.154c0.155-0.155,0.31-0.311,0.465-0.466l0,0l0,0l0,0l0,0
		c1.24-1.704,1.705-3.875,1.705-5.89C607.285,989.479,605.735,985.759,603.41,983.279z M578.92,902.525L578.92,902.525
		L578.92,902.525L578.92,902.525z M769.259,949.954L769.259,949.954L769.259,949.954L769.259,949.954z M766.778,896.17
		L766.778,896.17L766.778,896.17L766.778,896.17z M757.324,925c0.154,0.154,0.31,0.31,0.465,0.31c0.465,0.311,1.085,0.62,1.705,0.93
		c0.31,0.155,0.619,0.311,0.774,0.311h0.155l0.154,0.31c0,0.155,0,0.465,0,0.931c0,0.465,0,0.93,0,1.395c0,0.155,0,0.465,0,0.62l0,0
		c0,0.311,0,0.62,0,0.93c0,1.705-0.154,3.41-0.154,5.271c0,2.944,0.154,6.045,1.395,8.68c0.62,1.24,1.396,2.479,2.635,3.41
		c1.24,0.93,2.636,1.55,4.65,1.86c1.55,0.31,3.41,0.465,5.425,0.465c3.101,0,6.511-0.311,9.61-1.24s5.734-2.325,7.439-4.495l0,0l0,0
		c0,0,0.155-0.155,0.155-0.31c0.155-0.155,0.155-0.466,0.155-0.775v-0.155c0-0.465-0.311-0.93-0.62-1.085
		c-0.31-0.31-0.62-0.465-0.931-0.465l0,0l0,0c-1.084-0.155-2.17-0.155-3.254-0.155c-1.551,0-3.101,0.155-4.495,0.155
		c-0.466,0-0.931,0-1.24,0l0,0l0,0c-3.101,0-6.2-0.155-9.455-0.155c-0.774,0-1.55,0-1.86-0.31c-0.154-0.155-0.31-0.155-0.465-0.311
		c-0.154-0.154-0.154-0.31-0.154-0.774c-0.155-2.945-0.465-5.89-0.465-8.835c0-1.55,0-3.1,0.154-4.65c0.155,0,0.311,0,0.465,0
		c0.465,0,0.931,0,1.551,0c1.55,0,3.72,0,5.425,0.155c1.704,0,3.255,0.155,3.564,0.155l0,0l0,0c1.86-0.155,4.03-0.311,6.045-0.931
		c2.015-0.619,4.03-1.704,5.115-3.72l0,0l0.155-0.31c0.154-0.465,0.154-0.775,0.154-0.775v-0.155v-0.154
		c-0.31-0.62-0.465-1.396-0.93-2.016c-0.465-0.619-1.085-1.395-2.015-1.704l0,0l0,0c-0.775-0.155-1.396-0.155-2.016-0.155l0,0l0,0
		c-3.255,0.31-6.665,0.465-9.92,0.62c-0.62,0-1.395,0.155-2.325,0.155c-0.93,0.154-1.859,0.154-2.635,0.154
		c-0.93,0-1.705-0.154-2.015-0.31l0,0c0,0-0.155-0.155-0.155-0.465c0-0.311-0.154-0.775-0.154-1.24c0-0.93,0.154-2.17,0.31-3.255
		s0.31-2.016,0.31-2.48l0,0l0,0c0.311-3.1,0.62-6.354,0.931-9.455l0,0l0,0c0-0.154,0-0.31,0-0.465c0-0.93-0.155-1.859-0.775-2.635
		c-0.465-0.774-1.395-1.395-2.635-1.395c-0.465,0-0.775,0-1.24,0.154c-0.93,0.311-2.015,0.775-2.79,1.551
		c-0.774,0.774-1.395,1.55-1.859,2.479l0,0l0,0c-0.465,1.55-0.62,2.945-0.62,4.34l0,0c-0.155,4.185-0.465,8.215-0.62,12.4
		c0,0.465-0.155,0.774-0.155,1.085c-0.155,0.31-0.31,0.465-0.62,0.774c-0.31,0.155-0.774,0.311-1.395,0.465l0,0l0,0
		c-1.395,0.466-2.48,1.705-2.48,3.255c0,0.775,0.311,1.705,1.086,2.325L757.324,925z M419.427,998.935L419.427,998.935z
		 M323.327,936.314c0,0.93,0,1.705-0.155,2.635l0,0l0,0c-1.395,8.99-8.524,16.12-15.965,20.925l0,0l0,0
		c-14.879,9.766-31.929,12.71-49.134,14.88l0,0c-6.975,0.931-13.95,1.705-20.925,2.636c-1.705,0.31-4.03,0.31-6.355,0.465
		c-2.48,0.154-4.96,0.465-6.82,1.085c-1.24,0.465-2.325,1.085-2.79,1.859l0,0l0,0c-0.31,0.466-0.62,1.086-0.62,1.705
		c-0.155,0.62-0.155,1.551-0.155,2.325v0.311l-0.31,0.31l-0.155,0.155c-0.31,1.859-0.62,3.564-0.93,5.27l0,0
		c0,0.62-0.155,0.93-0.155,1.24l0,0l0,0c-0.465,2.79-1.55,5.27-3.255,7.13s-4.03,2.945-6.975,3.255l0,0l0,0
		c-1.24,0.155-2.48,0.155-3.72,0.155c-2.48,0-4.96-0.465-7.285-2.17l0,0l0,0c-2.635-2.016-4.185-4.806-4.96-7.596
		c-0.775-2.944-0.93-6.045-0.93-9.145c0-1.86,0-3.72,0-5.58c0-0.465,0-0.775,0-1.24c-0.31-9.3-0.465-18.755-0.465-28.209
		c0-7.905,0-15.966,0.155-23.87l0,0c0.155-3.255,0.465-6.82,1.55-10.075c1.24-3.1,3.255-6.045,6.665-7.75l0,0l0,0
		c3.41-1.55,7.13-2.015,10.695-2.325c14.88-1.55,29.915-2.944,44.795-2.944c11.16,0,22.32,0.774,33.325,3.255l0,0
		c8.525,1.859,17.205,4.649,24.18,10.385l0,0l0,0C318.832,920.505,323.327,928.255,323.327,936.314z M305.657,936.005
		c0-2.945-1.55-5.271-4.03-7.285c-2.635-1.86-6.2-3.41-10.075-4.495c-7.75-2.17-16.585-2.945-20.615-3.564
		c-5.58-0.62-11.314-1.086-17.05-1.086c-7.44,0-15.035,0.775-21.854,2.79c-7.13,2.016-10.85,5.271-13.02,9.455
		c-2.17,4.34-2.48,9.92-2.79,16.896c0,2.789,0,5.579,1.085,7.904c1.24,2.325,3.72,4.03,7.13,4.96
		c3.41,0.931,7.44,1.396,11.625,1.396c6.975,0,13.95-1.085,17.825-1.705l0,0c16.12-2.79,32.86-5.115,46.035-15.345
		c1.86-1.551,3.565-3.101,4.65-5.271C305.348,938.949,305.657,937.399,305.657,936.005z M464.996,907.95L464.996,907.95
		L464.996,907.95L464.996,907.95z M890.623,917.095c-0.621-0.774-1.551-1.24-2.636-1.24s-2.325,0.466-3.564,1.396l0.465,0.62
		l-0.465-0.62c-0.931,0.775-1.396,1.86-1.86,2.479l0,0l0,0c-1.55,3.255-2.945,6.665-4.495,10.075l0,0l0,0
		c-0.62,1.24-1.239,3.1-1.86,4.65c-0.619,1.239-1.239,2.479-2.015,3.255c-2.325-3.875-3.72-8.525-5.734-12.71l0,0
		c-0.466-0.931-1.085-2.945-2.171-4.65c-0.465-0.774-1.084-1.705-1.704-2.325s-1.55-1.085-2.48-1.085
		c-0.774,0-1.55,0.311-2.325,0.775l0,0l0,0l0,0l0,0c-1.085,0.775-1.705,2.015-2.324,2.945l0,0l0,0
		c-2.636,4.805-4.806,9.92-6.976,15.034c-0.31,0.466-0.465,0.931-0.62,1.085h-0.154l-0.155-0.154
		c-0.31-0.465-0.62-1.396-0.774-2.016l0,0l0,0c-1.24-4.34-2.48-8.68-3.721-12.864c-0.154-0.775-0.465-1.55-1.085-2.17
		c-0.465-0.62-1.396-0.931-2.325-0.931c-0.31,0-0.465,0-0.774,0l0,0c-1.085,0.155-2.325,0.311-3.41,1.085
		c-1.085,0.775-1.55,1.86-1.55,2.945c0,0.62,0.154,1.24,0.31,1.705l0,0c1.396,5.425,2.945,10.695,4.65,15.965l0,0
		c0.465,1.396,0.93,3.875,1.859,6.045c0.466,1.085,1.085,2.015,1.86,2.79s1.86,1.24,3.255,1.24c0.31,0,0.62,0,0.93,0l0,0l0,0
		c2.48-0.465,4.186-2.17,5.425-4.03c1.24-1.86,2.016-4.185,2.636-6.045c1.085-3.565,2.015-7.13,4.495-9.765
		c0.154-0.155,0.31-0.311,0.31-0.311l0,0l0,0h0.155l0,0c0.154,0,0.31,0.155,0.774,0.465c0.62,0.62,1.55,1.86,2.325,3.41
		c1.24,2.325,2.48,5.115,3.41,7.75c0.465,1.24,0.93,2.48,1.395,3.41c0.311,0.93,0.62,1.705,0.931,2.17l0,0l0,0
		c0.93,1.705,2.944,2.79,4.96,2.79c1.395,0,2.79-0.465,4.029-1.55l0,0l0,0l0,0l0,0c1.086-0.93,1.705-2.17,2.17-3.41
		c0.466-1.24,0.621-2.479,0.931-3.564c1.395-4.03,2.944-7.905,4.495-11.78c1.239-2.635,3.1-5.271,4.029-8.37l0,0l0,0l0,0
		c0.155-0.62,0.311-1.24,0.311-1.86C891.553,918.8,891.242,917.87,890.623,917.095z M939.912,935.229L939.912,935.229
		L939.912,935.229L939.912,935.229z M800.104,948.715L800.104,948.715L800.104,948.715L800.104,948.715L800.104,948.715
		c0.775-0.931,1.24-1.86,1.55-2.945s0.465-2.17,0.465-3.1l0,0c0.155-2.945,0.311-5.735,0.311-8.681c0-0.774-0.155-1.859-0.155-2.944
		c0-0.62,0-1.396,0.155-1.86c0.154-0.465,0.31-0.93,0.465-1.24c0.155-0.154,0.155-0.154,0.31-0.31
		c0.311-0.155,1.085-0.311,1.86-0.155c2.479,0,6.2-0.465,9.765-0.465c2.016,0,4.03,0.155,5.735,0.465
		c1.704,0.311,3.1,1.085,3.875,2.015l0,0l0,0c0.93,0.931,1.395,2.171,1.859,3.721l0,0l0,0c1.705,4.96,2.016,10.385,2.636,15.654l0,0
		c0,0.62,0.31,1.085,0.31,1.396v0.155l0.155,0.154c0.31,0.311,0.774,0.62,1.24,0.62c0.465,0,0.774,0,1.084,0
		c0.311,0,0.466,0,0.775,0c0.93,0,1.705-0.155,2.325-0.62s0.93-1.085,1.239-1.705c0.775-2.015,0.775-4.649,0.775-6.354
		c0-0.311,0-0.775,0-0.93c0-0.466,0-0.775,0-1.24c0-2.945-0.465-5.735-1.24-8.525l0,0l0,0c-0.619-2.17-1.395-4.495-2.479-6.354l0,0
		l0,0c-2.015-3.255-5.425-5.425-9.455-5.735l0,0l0,0l0,0c-2.015-0.154-3.875-0.31-5.89-0.31c-4.96,0-9.92,0.62-14.725,0.93
		c0-4.029,0-8.215,0-12.245c0-0.62,0-1.239,0-1.859l0,0l0,0c0-0.155,0-0.311,0-0.465c0-0.931,0.154-2.48,0.154-4.03
		c0-1.705-0.154-3.565-0.62-5.115c-0.31-0.774-0.62-1.395-1.085-2.015s-1.239-0.93-2.17-0.93c-0.154,0-0.465,0-0.62,0l0,0l0,0l0,0
		l0,0c-0.774,0.154-1.55,0.465-2.015,0.93c-0.62,0.465-1.085,1.085-1.24,1.86c-0.62,1.239-0.465,2.789-0.62,3.72l0,0l0,0
		c-0.31,7.75-0.62,15.5-0.93,23.404c-0.155,4.806-0.93,10.23-0.93,15.5c0,2.17,0.155,4.495,0.465,6.51l0,0
		c0.155,0.775,0.465,1.705,0.93,2.48c0.465,0.774,1.24,1.395,2.015,1.86l0,0l0,0c0.311,0.154,0.775,0.154,1.086,0.154
		C798.398,950.265,799.483,949.645,800.104,948.715z M790.958,1001.259L790.958,1001.259c-2.324-1.704-5.114-1.859-7.439-2.015
		c-7.13-0.465-14.415-1.24-21.39-2.325c-4.495-0.774-8.99-1.705-12.865-4.185c-0.465-0.311-0.93-0.62-1.24-0.93
		c-0.31-0.311-0.619-0.775-0.774-1.24l0,0l0,0c-0.155-0.311-0.155-0.465-0.155-0.775c0-0.774,0.311-1.55,0.93-2.325
		c0.62-0.774,1.396-1.55,2.016-2.015c6.665-4.96,15.035-6.354,23.404-6.354c3.255,0,6.51,0.154,9.766,0.465l0,0
		c0.465,0,1.084,0.155,1.55,0.155c1.085,0,2.325-0.155,3.409-0.62c1.086-0.466,2.016-1.396,2.325-2.636l0,0l0,0l0,0
		c0.155-0.31,0.155-0.62,0.155-0.93c0-1.24-0.465-2.325-1.085-3.41l0,0l0,0l0,0c-1.24-1.859-3.1-2.944-4.96-3.72
		c-1.86-0.62-3.875-0.93-5.89-1.085l0,0c-2.016-0.155-4.03-0.311-6.045-0.311c-6.045,0-12.09,0.775-17.98,2.171l0,0l0,0
		c-4.34,1.085-8.835,2.479-12.555,5.425c-4.649,3.564-7.13,8.524-7.13,13.484c0,4.34,1.86,8.68,5.58,12.09l0,0
		c3.564,3.255,7.904,5.115,12.399,6.355l0,0l0,0l0,0l0,0c10.54,3.255,22.011,3.1,32.55,4.185l0,0l0,0c0.62,0,1.24,0.155,1.86,0.155
		c0.774,0,1.395,0,2.17-0.311c0.774-0.154,1.396-0.62,2.015-1.085c0.155-0.154,0.155-0.154,0.311-0.31l0,0l0,0
		c0.62-0.93,0.774-2.016,0.774-2.945C793.129,1004.049,792.354,1002.344,790.958,1001.259L790.958,1001.259z M839.473,993.199
		c0,1.24,0.155,2.79,0.155,4.34c0,1.24,0,2.48-0.31,3.565c-0.311,1.085-0.62,2.17-1.396,3.1l0,0l0,0
		c-1.55,1.705-3.72,2.79-6.045,3.564c-2.325,0.775-4.805,1.396-6.665,1.86l0,0l0,0c-4.495,1.085-9.455,2.015-14.415,2.015
		c-2.635,0-5.27-0.31-7.75-0.774l0,0l0,0l0,0c-0.774-0.155-1.55-0.465-2.17-0.775l0,0l0,0l0,0l0,0
		c-3.255-1.395-4.805-4.34-4.805-7.13c0-1.395,0.31-2.79,1.085-4.029l0,0l0,0l0,0c0.775-1.551,1.86-2.636,2.945-3.721l0,0l0,0
		c4.495-4.029,10.539-6.045,16.43-6.045l0,0l0,0c0.62,0,1.395,0,2.17,0c1.86,0,4.03,0.155,6.2,0.465c1.55,0.311,3.1,0.62,4.34,1.085
		c-0.155-0.774-0.465-1.705-0.931-2.324c-0.619-0.931-1.55-1.705-2.635-2.016l0,0l0,0c-1.24-0.465-2.79-0.465-4.494-0.465
		c-3.41,0-6.976,0.311-10.541,0.62c-2.324,0.155-5.114,0.93-7.749,0.93c-0.62,0-1.396,0-2.016-0.154l0,0l0,0
		c-0.154,0-0.31-0.155-0.62-0.155c-0.154,0-0.465-0.155-0.774-0.465l0,0l0,0l0,0l0,0c-0.62-0.465-0.775-1.085-0.775-1.705
		c0-0.311,0-0.62,0.155-0.93l0,0v-0.155l0,0l0,0c0.31-1.085,1.085-1.86,1.859-2.479c0.931-0.62,1.86-1.086,2.945-1.396
		c2.17-0.62,4.495-0.93,5.891-1.085c4.34-0.775,8.68-0.775,13.02-0.93c0.31,0,0.62,0,0.775,0c4.34,0,9.3,1.085,12.399,4.805l0,0l0,0
		l0,0l0,0C838.698,985.449,839.318,989.479,839.473,993.199L839.473,993.199z M829.863,999.554c0-0.465,0-0.774-0.155-1.239v-0.155
		v-0.155c0-0.154,0-0.31,0-0.31l0,0l0,0c0,0-0.155,0-0.31,0l0,0l0,0c-3.875-0.311-7.596-0.93-11.471-0.93
		c-0.93,0-1.859,0-2.635,0.154l0,0l0,0c-0.154,0-0.62,0.155-1.24,0.311c-0.619,0.154-1.395,0.31-2.17,0.62
		c-1.55,0.465-3.41,1.239-4.805,2.015c-0.93,0.465-1.705,1.085-2.015,1.55c-0.155,0.311-0.311,0.465-0.311,0.465v0.155
		c0,0.155,0.155,0.31,0.466,0.465l0,0l0,0c0.154,0.155,0.31,0.155,0.619,0.31c0.311,0,0.62,0.155,0.931,0.155
		c1.395,0.155,2.79,0.155,4.185,0.155c2.635,0,5.271-0.155,7.905-0.465c0.31,0,0.774-0.155,1.55-0.155
		c0.775-0.155,1.859-0.155,2.945-0.31c2.17-0.311,4.649-0.465,5.89-0.775h0.31C829.863,1000.484,829.863,1000.02,829.863,999.554z
		 M742.289,974.289L742.289,974.289L742.289,974.289L742.289,974.289z M979.592,928.564L979.592,928.564L979.592,928.564z
		 M889.383,987.619L889.383,987.619L889.383,987.619L889.383,987.619c-0.155-0.93-0.62-1.705-1.085-2.479l0,0l0,0
		c-3.72-4.806-9.765-7.13-15.345-7.285l0,0l0,0c-0.311,0-0.62,0-1.086,0c-6.819,0-13.329,2.635-19.685,4.03c-0.155,0-0.31,0-0.465,0
		c-0.31,0-0.465,0-0.62-0.155c-0.154-0.155-0.31-0.311-0.62-0.775c-0.31-0.465-0.774-1.085-1.705-1.395
		c-0.465-0.155-0.93-0.155-1.395-0.155c-0.931,0-1.86,0.465-2.635,1.085c-0.931,0.93-1.55,2.48-2.016,4.185
		c-0.31,1.705-0.465,3.721-0.465,5.891c0,3.564,0.465,7.439,0.931,10.694c0.31,1.705,0.465,3.101,0.774,4.341
		c0.31,1.239,0.465,2.17,0.775,2.789l0,0l0,0c0.31,0.62,0.62,1.396,1.085,2.016c0.31,0.31,0.619,0.62,0.93,0.774
		c0.31,0.155,0.775,0.311,1.24,0.311c0.31,0,0.619,0,0.774-0.155l0,0c0.465-0.155,0.931-0.62,1.24-0.93
		c0.31-0.311,0.465-0.775,0.62-1.085l0,0l0,0l0,0l0,0c0.775-1.705,0.93-4.03,0.93-6.51c0-3.721-0.465-7.905-0.775-10.386v-0.31
		c0-0.775,0.311-1.24,0.931-1.86c0.93-0.774,2.635-1.395,4.34-1.705c1.705-0.31,3.41-0.619,4.495-0.774
		c2.479-0.465,4.96-0.93,7.439-0.93c2.325,0,4.65,0.31,6.665,1.395l0,0l0,0c1.705,0.775,3.101,2.17,4.806,3.255
		c1.395,0.93,3.1,1.86,4.959,1.86c0.311,0,0.775,0,1.086-0.155l0,0l0,0l0,0l0,0c1.084-0.155,2.015-0.774,2.789-1.55
		c0.775-0.775,1.24-1.86,1.24-2.945C889.537,988.239,889.383,987.93,889.383,987.619L889.383,987.619z M892.793,945.149
		c-0.775-1.24-1.24-2.635-1.24-4.03c0-1.395,0.31-2.789,1.085-4.029l0,0l0,0c0.774-1.24,1.86-2.48,3.1-3.565l0,0l0,0
		c4.65-4.185,10.695-5.89,16.896-6.045l0,0l0,0c0.93,0,1.859,0,2.944,0c3.41,0,7.285,0.311,10.23,1.396
		c-0.311-1.86-1.705-3.565-3.72-4.186l0,0l0,0c-1.396-0.62-2.945-0.62-4.65-0.62c-3.72,0-7.285,0.155-11.005,0.466l0,0l0,0
		c-2.479,0.154-5.425,0.93-8.215,0.93c-0.62,0-1.24,0-1.86-0.155h-0.154h-0.155c0,0-0.155,0-0.465-0.155
		c-0.155,0-0.466-0.154-0.775-0.465l0,0l0,0l0,0l0,0c-0.31-0.154-0.465-0.465-0.62-0.774c-0.154-0.311-0.154-0.62-0.154-0.931
		c0-0.31,0-0.619,0.154-0.774l0,0l0,0c0.311-1.085,1.085-1.86,2.016-2.48c0.93-0.619,2.015-0.93,3.1-1.395
		c2.17-0.62,4.65-0.93,6.2-1.085l0,0c4.34-0.62,8.989-0.775,13.484-0.93l0,0l0,0c4.806,0,10.075,0.93,13.64,4.805l0,0
		c2.636,2.945,3.256,6.975,3.721,10.695l0,0l0,0c0,1.085,0.154,2.479,0.154,3.874c0,1.24,0,2.48-0.31,3.721
		c-0.31,1.239-0.62,2.325-1.396,3.255l0,0l0,0c-1.55,1.705-3.875,2.635-6.354,3.564c-2.479,0.775-4.96,1.396-6.975,1.86l0,0
		c-4.495,1.085-9.61,2.015-14.726,2.015c-2.789,0-5.425-0.31-8.06-0.93l0,0l0,0c-0.775-0.155-1.396-0.31-2.17-0.62l0,0l0,0l0,0l0,0
		C894.808,947.319,893.567,946.234,892.793,945.149z M900.232,939.725v0.155c0,0.154,0.155,0.31,0.465,0.31
		c0.465,0.311,1.24,0.311,1.705,0.311l0,0l0,0c1.705,0.154,3.41,0.31,5.27,0.31c2.48,0,4.961-0.155,7.285-0.465
		c0.311,0,0.775-0.155,1.551-0.155c0.774-0.154,1.859-0.154,2.944-0.31c2.17-0.311,4.806-0.465,6.045-0.775
		c0.155,0,0.311,0,0.466-0.155c0.154-1.085,0.154-2.015,0.154-3.1v-0.31l0,0h-0.154c0,0-0.155,0-0.311,0l0,0l0,0
		c-4.03-0.311-8.37-0.775-12.4-0.775c-0.774,0-1.55,0-2.324,0c-0.155,0-0.62,0.155-1.24,0.311c-0.62,0.154-1.395,0.31-2.17,0.619
		c-1.705,0.466-3.565,1.24-5.115,2.016c-0.93,0.465-1.705,1.085-2.17,1.395C900.232,939.569,900.232,939.725,900.232,939.725z
		 M940.997,988.549L940.997,988.549L940.997,988.549c0,1.085-0.155,2.48-0.93,3.565c-0.931,1.24-2.325,1.705-3.565,2.015l0,0l0,0
		c-4.96,0.93-10.074,0.93-15.035,1.24c-2.635,0.155-5.114,0.155-7.595,0.465l0,0l0,0c-3.1,0.311-6.045,0.775-9.145,0.93l0,0l0,0l0,0
		c0.155,0.155,0.31,0.465,0.465,0.62c0.465,0.465,0.93,0.931,1.085,1.24l0,0c1.86,1.24,4.03,2.17,6.2,2.79l0,0
		c3.41,1.085,7.284,1.86,11.005,2.015c1.085,0,2.17,0.155,3.255,0.155s2.17,0,3.255-0.155c1.55-0.154,3.41-0.465,5.27-0.465
		c0.465,0,0.775,0,1.24,0l0,0h0.155l0,0c0.31,0,0.465,0.155,0.62,0.155c0.154,0.154,0.465,0.31,0.619,0.62l0,0
		c0.155,0.154,0.155,0.31,0.155,0.465s0,0.31,0,0.31c0,1.085-0.31,2.325-0.774,3.255c-0.465,1.085-1.396,2.016-2.48,2.48l0,0
		c-1.085,0.465-2.17,0.62-3.255,0.62c-0.93,0-1.705,0-2.479,0c-1.705,0-3.565,0-5.426-0.155l0,0
		c-3.409-0.31-6.819-0.465-10.074-1.085l0,0l0,0l0,0c-2.79-0.62-5.58-1.24-8.215-2.325l0,0l0,0c-3.875-1.55-8.37-4.34-10.85-7.904
		l0,0l0,0l0,0c-1.396-2.016-2.016-4.495-2.016-6.976c0-1.705,0.311-3.41,0.775-4.96l0,0l0,0l0,0c1.55-4.34,5.27-7.13,9.3-8.68l0,0
		l0,0c5.114-1.86,10.694-2.635,15.81-2.79l0,0l0,0c1.24,0,2.48-0.155,3.875-0.155c3.41,0,6.82,0.311,10.075,1.551l0,0l0,0
		c2.17,0.93,4.185,2.324,5.89,4.185C939.603,983.744,940.842,986.069,940.997,988.549z M933.557,986.379c0,0,0-0.154-0.31-0.465
		c-0.31-0.31-0.774-0.465-1.24-0.774c-1.085-0.466-2.479-0.931-3.564-1.24c-0.775-0.155-1.24-0.311-1.55-0.311
		c-0.93,0-2.016-0.154-2.945-0.154c-2.945,0-5.89,0.31-8.68,0.774l0,0l0,0c-3.255,0.62-6.355,1.55-9.455,2.945l0,0l0,0
		c-0.93,0.31-1.86,0.93-2.635,1.86l0,0l0,0l-0.311,0.31c0.465,0,1.085,0.155,1.86,0.155c2.015,0,4.495-0.155,5.271-0.311h0.154
		c5.27-0.774,10.385-1.085,15.655-1.085c0.774,0,4.34-0.154,6.51-0.93c0.62-0.155,1.085-0.465,1.239-0.62l0,0l0,0V986.379z
		 M674.399,1001.725c-0.155-0.155-0.31-0.155-0.465-0.155h-0.155h-0.155c-0.93-0.155-1.705-0.155-2.635-0.155
		c-1.24,0-2.635,0.155-3.72,0.155c-0.311,0-0.62,0-0.93,0l0,0l0,0c-2.636,0-5.115,0-7.75-0.155l0,0l0,0c-0.62,0-1.24,0-1.396-0.155
		l-0.31-0.154c0-0.155-0.155-0.311-0.155-0.62c-0.155-2.325-0.31-4.805-0.31-7.13c0-1.24,0-2.635,0.154-3.875h0.311
		c0.31,0,0.774,0,1.395,0c1.396,0,3.101,0,4.495,0.155c1.396,0,2.635,0.154,2.945,0.154c1.55,0,3.409-0.154,5.114-0.62
		c1.705-0.465,3.41-1.395,4.186-3.1l0,0c0.154-0.155,0.154-0.311,0.154-0.465c0-0.155,0-0.311,0-0.465v-0.155v-0.155
		c-0.154-0.465-0.465-1.085-0.774-1.705c-0.311-0.62-0.93-1.085-1.705-1.395l0,0l0,0l0,0l0,0c-0.62-0.155-1.24-0.155-1.705-0.155
		l0,0l0,0c-2.79,0.311-5.425,0.311-8.215,0.465l0,0c-0.62,0-1.24,0.155-1.86,0.155c-0.774,0-1.55,0.155-2.17,0.155
		c-0.774,0-1.395-0.155-1.705-0.311l0,0c0,0-0.154-0.154-0.154-0.31c0-0.311,0-0.62,0-0.93c0-1.551,0.465-3.875,0.465-4.65l0,0l0,0
		c0.155-2.635,0.465-5.271,0.774-7.75l0,0l0,0c0-0.155,0-0.31,0-0.465c0-0.775-0.154-1.705-0.619-2.325
		c-0.466-0.62-1.24-1.085-2.171-1.085c-0.31,0-0.619,0-1.085,0.155l0,0l0,0l0,0l0,0c-0.774,0.154-1.55,0.62-2.324,1.24
		c-0.62,0.619-1.24,1.395-1.396,2.17l0,0l0,0l0,0l0,0c-0.465,1.239-0.465,2.479-0.62,3.564l0,0l0,0
		c-0.154,3.41-0.31,6.82-0.62,10.23c0,0.31-0.154,0.619-0.154,0.774c-0.155,0.311-0.155,0.311-0.465,0.465
		c-0.155,0.155-0.62,0.311-1.24,0.465l0,0l0,0c-1.24,0.466-2.015,1.551-2.17,2.79c0,0.775,0.31,1.551,1.085,2.17h0.155l2.635,1.085
		v0.155c0,0.155,0,0.465,0,0.62c0,0.465,0,1.085,0,1.55l0,0l0,0c0,0.311,0,0.62,0,0.775c0,1.24,0,2.79,0,4.34
		c0,2.479,0.155,4.96,1.085,7.13c0.465,1.085,1.24,2.015,2.17,2.79c0.93,0.774,2.325,1.24,3.875,1.55l0,0l0,0
		c1.395,0.31,2.945,0.31,4.649,0.31c2.48,0,5.426-0.31,7.905-1.085c2.48-0.774,4.805-1.859,6.2-3.72l0,0l0,0
		c0-0.154,0.155-0.154,0.155-0.465c0.154-0.155,0.154-0.465,0.154-0.775v-0.31l-0.154-0.155
		C674.864,1001.879,674.709,1001.879,674.399,1001.725z M643.555,940.81c-0.311-2.015-0.155-4.03-0.311-5.58l0,0l0,0
		c0-4.495-0.154-8.835-0.154-13.175c0-3.72,0.154-7.439,0.154-11.16l0,0l0,0c0.155-1.55,0.311-3.255,0.931-4.805
		s1.705-2.945,3.564-3.72l0,0l0,0c1.86-0.775,3.875-0.93,5.58-1.085l0,0c7.44-0.775,15.19-1.396,22.785-1.396
		c5.58,0,11.16,0.311,16.585,1.396l0,0l0,0c4.34,0.774,8.835,2.015,12.399,4.805c3.255,2.48,5.58,6.045,5.58,9.92
		c0,0.465,0,0.93-0.155,1.396c-0.31,2.17-1.55,4.185-2.944,5.89c-1.55,1.705-3.41,3.1-5.271,4.185l0,0l0,0
		c-7.595,4.65-16.274,6.045-24.954,6.976c-3.565,0.465-6.976,0.774-10.54,1.239l0,0c-0.93,0.155-2.016,0.155-3.255,0.155
		c-1.24,0-2.48,0.155-3.41,0.465c-0.62,0.155-1.085,0.465-1.24,0.775c-0.31,0.31-0.31,0.93-0.31,1.705v0.774h-0.311
		c-0.154,0.62-0.154,1.24-0.31,1.86c0,0.155,0,0.465,0,0.62l0,0l0,0c-0.311,1.395-0.775,2.635-1.705,3.41
		c-0.93,0.93-2.17,1.395-3.72,1.704l0,0l0,0l0,0c-0.775,0.155-1.396,0.155-2.016,0.155c-1.239,0-2.635-0.31-3.72-1.085
		C644.64,944.685,643.864,942.67,643.555,940.81z M656.729,921.745c0,1.239,0,2.479,0.465,3.564c0.465,0.93,1.705,1.55,3.255,2.015
		c1.551,0.466,3.721,0.62,5.735,0.62c3.564,0,7.13-0.465,8.99-0.774c8.215-1.24,16.585-2.325,23.095-6.975l0,0
		c1.085-0.775,1.859-1.396,2.17-2.325l0,0l0,0c0.465-0.775,0.62-1.396,0.62-2.016s-0.155-1.085-0.466-1.55
		c-0.31-0.465-0.774-0.93-1.395-1.395c-1.24-0.931-2.945-1.551-4.96-2.016c-3.875-1.085-8.215-1.395-10.385-1.55
		c-2.79-0.31-5.735-0.465-8.835-0.465c-3.72,0-7.285,0.31-10.695,1.24l0,0l0,0c-1.705,0.465-3.1,1.085-4.029,1.705
		c-0.931,0.62-1.705,1.55-2.171,2.479C657.194,916.01,656.885,918.49,656.729,921.745z M676.414,996.764L676.414,996.764
		L676.414,996.764L676.414,996.764z M972.771,915.545L972.771,915.545L972.771,915.545c-0.774-1.55-2.324-2.48-3.875-2.48
		c-0.774,0-1.55,0.155-2.17,0.775l0,0l0,0c-1.085,0.93-1.859,2.17-2.17,3.72c-0.465,1.396-0.465,2.945-0.465,4.495
		c0,2.635,0.311,5.115,0.465,6.82l0,0c0.155,1.705,0.311,3.41,0.311,4.96c0,1.395-0.155,2.79-0.465,4.03l0,0
		c-0.466,1.55-1.24,2.479-2.325,3.1c-0.931,0.62-2.325,0.93-3.875,0.93c-0.62,0-1.085,0-1.705-0.154
		c-2.015-0.311-4.03-1.24-5.271-2.79c-0.93-1.396-1.239-3.101-1.55-4.96c-0.31-3.255-0.62-6.665-0.62-9.92c0-0.775,0-1.396,0-2.171
		l0,0l0,0c0-0.465,0-0.774,0-1.239c0-0.775,0-1.86-0.619-2.79l0,0l0,0l0,0l0,0c-0.311-0.62-0.775-1.24-1.396-1.55
		c-0.62-0.465-1.396-0.62-2.17-0.62h-0.311l0,0l0,0c-1.085,0.154-1.704,0.93-2.17,1.705c-0.465,0.774-0.774,1.704-0.93,2.479l0,0
		c-0.775,3.72-1.55,7.439-1.55,11.314c0,1.396,0.154,2.636,0.31,4.03c0.62,4.186,3.101,8.37,6.511,11.16l0,0l0,0
		c2.789,1.86,5.27,2.479,7.904,2.325c2.325,0,4.65-0.465,7.439-0.931l0,0l0,0h0.311c0.311,0,0.465,0.155,0.465,0.155l0,0l0,0
		c0.155,0.155,0.311,0.465,0.465,0.775c0.155,0.465,0.155,0.93,0.155,1.55c0,0.774-0.155,1.705-0.155,2.635
		c-0.154,0.775-0.154,1.55-0.154,2.015l0,0c-0.155,2.48-0.465,4.96-0.931,7.285c-0.93,4.805-2.479,9.3-4.495,13.795l0,0
		c-1.085,2.48-2.635,5.425-2.635,8.525c0,1.085,0.311,2.015,0.93,2.635c0.62,0.62,1.396,0.775,2.325,0.775
		c0.62,0,1.396-0.155,2.17-0.311l0,0l0,0c1.396-0.465,2.636-1.395,3.41-2.479c0.775-1.085,1.396-2.17,2.015-3.41l0,0l0,0
		c4.186-10.075,5.891-20.305,6.976-30.845l0,0l0,0c0.62-6.665,0.93-13.33,0.93-19.995c0-4.185-0.155-8.524-0.465-12.71
		C973.082,917.404,973.082,916.475,972.771,915.545z M740.738,949.954c-4.494,1.085-9.609,2.016-14.725,2.016
		c-2.79,0-5.425-0.311-8.06-0.931l0,0l0,0c-0.775-0.154-1.396-0.31-2.17-0.619l0,0l0,0l0,0l0,0c-1.705-0.62-2.945-1.705-3.72-2.945
		c-0.775-1.24-1.24-2.635-1.24-4.03c0-1.395,0.31-2.79,1.085-4.029l0,0l0,0c0.774-1.24,1.86-2.48,3.1-3.565l0,0l0,0
		c4.65-4.185,10.695-5.89,16.896-6.045l0,0l0,0c0.93,0,1.859,0,2.944,0c3.41,0,7.285,0.31,10.23,1.395
		c-0.311-1.859-1.705-3.564-3.72-4.185l0,0l0,0c-1.396-0.62-2.945-0.62-4.65-0.62c-3.72,0-7.285,0.155-11.005,0.465l0,0l0,0
		c-2.48,0.155-5.425,0.931-8.215,0.931c-0.62,0-1.24,0-1.86-0.155h-0.155h-0.154c0,0-0.155,0-0.465-0.155
		c-0.155,0-0.466-0.155-0.775-0.465l0,0l0,0l0,0l0,0c-0.31-0.155-0.465-0.465-0.62-0.775c-0.155-0.31-0.155-0.619-0.155-0.93
		c0-0.31,0-0.62,0.155-0.774l0,0l0,0c0.311-1.085,1.085-1.86,2.015-2.48c0.931-0.62,2.016-0.93,3.101-1.395
		c2.17-0.62,4.649-0.931,6.2-1.085l0,0l0,0c4.34-0.62,8.989-0.775,13.484-0.931l0,0l0,0c4.805,0,10.075,0.931,13.64,4.806l0,0l0,0
		c2.635,2.944,3.256,6.975,3.41,10.539c0,1.085,0.155,2.48,0.155,3.875c0,1.24,0,2.48-0.31,3.721
		c-0.311,1.239-0.621,2.324-1.396,3.255l0,0l0,0c-1.55,1.705-3.875,2.635-6.2,3.564
		C745.079,948.869,742.599,949.335,740.738,949.954L740.738,949.954L740.738,949.954z M739.034,942.359
		c2.17-0.31,4.805-0.465,6.045-0.774c0.154,0,0.31,0,0.465-0.155c0-0.311,0.155-0.775,0.155-1.24c0-0.62,0-1.085-0.155-1.705l0,0
		l0,0v-0.31l0,0h-0.155c0,0-0.155,0-0.31,0l0,0l0,0c-4.03-0.311-8.37-0.775-12.4-0.775c-0.774,0-1.55,0-2.325,0
		c-0.154,0-0.62,0.155-1.239,0.311c-0.62,0.154-1.396,0.31-2.17,0.62c-1.705,0.465-3.565,1.239-5.115,2.015
		c-0.931,0.465-1.705,1.085-2.17,1.396c-0.155,0.31-0.311,0.465-0.311,0.465v0.154c0,0.155,0.155,0.311,0.466,0.311
		c0.465,0.31,1.239,0.31,1.704,0.31l0,0l0,0c1.551,0.155,2.945,0.311,4.495,0.311c2.635,0,5.271-0.155,8.215-0.465
		c0.311,0,0.775-0.155,1.551-0.155C736.863,942.515,737.949,942.515,739.034,942.359z M939.912,935.229L939.912,935.229z
		 M715.319,989.634c0.465,1.24,0.774,2.636,0.774,4.03c0,3.875-1.859,7.595-4.805,10.23l0,0l0,0c-4.185,3.564-9.92,5.114-15.5,5.114
		c-1.705,0-3.564-0.155-5.27-0.465c-3.101-0.62-6.355-1.86-8.99-3.72c-2.635-2.016-4.65-4.65-4.96-8.061
		c0-0.62-0.155-1.085-0.155-1.705c0-5.734,3.875-10.694,8.99-13.484l0,0c3.255-1.705,6.975-2.635,11.005-2.635
		c5.89,0,12.09,2.015,15.965,6.045l0,0l0,0l0,0l0,0C713.614,986.379,714.544,988.084,715.319,989.634z M708.654,994.284
		c0-2.015-0.775-4.34-2.17-5.735c-1.55-1.55-3.721-2.479-5.891-2.944c-1.239-0.155-2.479-0.311-3.72-0.311
		c-2.015,0-4.185,0.311-6.045,1.085c-1.859,0.775-3.41,1.86-4.649,3.41c-1.085,1.55-1.551,3.1-1.551,4.34s0.466,2.325,1.086,3.41
		c0.774,1.085,1.859,2.015,3.1,2.635c2.635,1.551,5.89,2.325,8.99,2.325c0.774,0,1.55,0,2.324-0.155
		c1.86-0.465,3.875-1.239,5.426-2.324c1.55-1.24,2.635-2.79,3.1-4.65C708.499,995.06,708.654,994.749,708.654,994.284z"/>
</g>
</svg>
